# xmcd
#
# Track frame offsets: 
#        150
#        15472
#        34317
#        45879
#        63103
#        89593
#        105721
#        133232
#        141945
#        156217
#        169658
#        184514
#
# Disc length: 2765 seconds
#
# Revision: 0
# Processed by: cddbd v1.5.2PL0 Copyright (c) Steve Scherf et al.
# Submitted via: ExactAudioCopy v1.2
#
DISCID=990acb0c
DTITLE=Mark Wenner's Blues Warriors - Mark Wenner's Blues Warriors
DYEAR=2018
DGENRE=Blues
TTITLE0=Diamonds At Your Feet
TTITLE1=(Let Me Be Your) Teddy Bear
TTITLE2=Rock A While
TTITLE3=Checkin' On My Baby
TTITLE4=Just To Be With You
TTITLE5=King Bee
TTITLE6=It's My Own Fault
TTITLE7=Hello Josephine
TTITLE8=Trust My Baby
TTITLE9=The Hucklebuck
TTITLE10=Just Like Jimmy
TTITLE11=Dust My Broom
EXTD=
EXTT0=
EXTT1=
EXTT2=
EXTT3=
EXTT4=
EXTT5=
EXTT6=
EXTT7=
EXTT8=
EXTT9=
EXTT10=
EXTT11=
PLAYORDER=
